<svg
   width="16"
   height="16"
   fill="currentColor"
   class="bi bi-mastodon"
   viewBox="0 0 16 16"
   version="1.1"
   id="svg4"
   sodipodi:docname="mastodon-colours.svg"
   inkscape:version="1.2.2 (b0a8486541, 2022-12-01)"
   xmlns:inkscape="http://www.inkscape.org/namespaces/inkscape"
   xmlns:sodipodi="http://sodipodi.sourceforge.net/DTD/sodipodi-0.dtd"
   xmlns="http://www.w3.org/2000/svg"
   xmlns:svg="http://www.w3.org/2000/svg">
  <defs
     id="defs8" />
  <sodipodi:namedview
     id="namedview6"
     pagecolor="#ffffff"
     bordercolor="#000000"
     borderopacity="0.25"
     inkscape:showpageshadow="2"
     inkscape:pageopacity="0.0"
     inkscape:pagecheckerboard="true"
     inkscape:deskcolor="#d1d1d1"
     showgrid="false"
     inkscape:zoom="49.3125"
     inkscape:cx="6.8948035"
     inkscape:cy="6.418251"
     inkscape:window-width="1385"
     inkscape:window-height="991"
     inkscape:window-x="26"
     inkscape:window-y="23"
     inkscape:window-maximized="0"
     inkscape:current-layer="svg4" />
  <path
     d="M11.19 12.195c2.016-.24 3.77-1.475 3.99-2.603.348-1.778.32-4.339.32-4.339 0-3.47-2.286-4.488-2.286-4.488C12.062.238 10.083.017 8.027 0h-.05C5.92.017 3.942.238 2.79.765c0 0-2.285 1.017-2.285 4.488l-.002.662c-.004.64-.007 1.35.011 2.091.083 3.394.626 6.74 3.78 7.57 1.454.383 2.703.463 3.709.408 1.823-.1 2.847-.647 2.847-.647l-.06-1.317s-1.303.41-2.767.36c-1.45-.05-2.98-.156-3.215-1.928a4 4 0 0 1-.033-.496s1.424.346 3.228.428c1.103.05 2.137-.064 3.188-.189zm1.613-2.47H11.13v-4.08c0-.859-.364-1.295-1.091-1.295-.804 0-1.207.517-1.207 1.541v2.233H7.168V5.89c0-1.024-.403-1.541-1.207-1.541-.727 0-1.091.436-1.091 1.296v4.079H3.197V5.522q0-1.288.66-2.046c.456-.505 1.052-.764 1.793-.764.856 0 1.504.328 1.933.983L8 4.39l.417-.695c.429-.655 1.077-.983 1.934-.983.74 0 1.336.259 1.791.764q.662.757.661 2.046z"
     id="path2"
     style="fill:#2b90d9;fill-opacity:1" />
  <path
     style="fill:#ffffff;fill-opacity:1;fill-rule:nonzero;stroke-width:0.0202788"
     d="m 3.2141952,7.4570093 c 0,-1.4147265 0.00775,-2.3206581 0.020772,-2.4283904 C 3.3405242,4.1553895 3.6954088,3.5195147 4.3102189,3.1020051 4.732567,2.815194 5.3227991,2.6791828 5.9015647,2.7353003 6.4582055,2.7892726 6.8693706,2.961305 7.2157804,3.2851711 7.4180804,3.4743058 7.5509952,3.6542485 7.7972117,4.0723249 7.9031686,4.25224 7.9944233,4.3994433 8,4.3994433 8.00558,4.3994433 8.096831,4.25224 8.2027883,4.0723249 8.4490048,3.6542485 8.5819196,3.4743058 8.7842196,3.2851711 9.1306294,2.961305 9.5417945,2.7892726 10.098435,2.7353003 c 0.860609,-0.083445 1.655964,0.2411758 2.128295,0.8686543 0.298227,0.3961871 0.468431,0.8466481 0.538303,1.4246643 0.01302,0.1077323 0.02077,1.0136639 0.02077,2.4283904 v 2.2565522 h -0.820528 -0.820529 l -0.0072,-2.2053232 C 11.12955,5.0733603 11.135043,5.177923 10.999882,4.8883498 10.883681,4.639398 10.715842,4.4887292 10.453739,4.3980767 10.275776,4.3365255 9.8394296,4.3307258 9.652725,4.38743 9.257117,4.5075806 9.0179107,4.7751838 8.8887684,5.2420786 8.844903,5.4006674 8.8437348,5.4346957 8.8367282,6.7579214 l -0.00717,1.3536122 H 8 7.1704395 L 7.1632718,6.7579214 C 7.1562652,5.4346957 7.155097,5.4006674 7.1112316,5.2420786 6.9363896,4.6099625 6.5326347,4.3136093 5.8910013,4.3464379 5.434779,4.36978 5.1657955,4.5333989 5.0001182,4.8883498 4.8649565,5.177923 4.87045,5.0733603 4.8624749,7.5082383 l -0.00722,2.2053232 H 4.0347234 3.2141952 Z"
     id="path4159" />
</svg>
