<svg
   width="16"
   height="16"
   fill="currentColor"
   class="bi bi-mastodon"
   viewBox="0 0 16 16"
   version="1.1"
   id="svg4"
   sodipodi:docname="mastodon.svg"
   inkscape:version="1.2.2 (b0a8486541, 2022-12-01)"
   xmlns:inkscape="http://www.inkscape.org/namespaces/inkscape"
   xmlns:sodipodi="http://sodipodi.sourceforge.net/DTD/sodipodi-0.dtd"
   xmlns="http://www.w3.org/2000/svg"
   xmlns:svg="http://www.w3.org/2000/svg">
  <defs
     id="defs8" />
  <sodipodi:namedview
     id="namedview6"
     pagecolor="#ffffff"
     bordercolor="#000000"
     borderopacity="0.25"
     inkscape:showpageshadow="2"
     inkscape:pageopacity="0.0"
     inkscape:pagecheckerboard="true"
     inkscape:deskcolor="#d1d1d1"
     showgrid="false"
     inkscape:zoom="49.3125"
     inkscape:cx="8"
     inkscape:cy="8.0202788"
     inkscape:window-width="1862"
     inkscape:window-height="1011"
     inkscape:window-x="0"
     inkscape:window-y="0"
     inkscape:window-maximized="1"
     inkscape:current-layer="svg4" />
  <path
     d="M11.19 12.195c2.016-.24 3.77-1.475 3.99-2.603.348-1.778.32-4.339.32-4.339 0-3.47-2.286-4.488-2.286-4.488C12.062.238 10.083.017 8.027 0h-.05C5.92.017 3.942.238 2.79.765c0 0-2.285 1.017-2.285 4.488l-.002.662c-.004.64-.007 1.35.011 2.091.083 3.394.626 6.74 3.78 7.57 1.454.383 2.703.463 3.709.408 1.823-.1 2.847-.647 2.847-.647l-.06-1.317s-1.303.41-2.767.36c-1.45-.05-2.98-.156-3.215-1.928a4 4 0 0 1-.033-.496s1.424.346 3.228.428c1.103.05 2.137-.064 3.188-.189zm1.613-2.47H11.13v-4.08c0-.859-.364-1.295-1.091-1.295-.804 0-1.207.517-1.207 1.541v2.233H7.168V5.89c0-1.024-.403-1.541-1.207-1.541-.727 0-1.091.436-1.091 1.296v4.079H3.197V5.522q0-1.288.66-2.046c.456-.505 1.052-.764 1.793-.764.856 0 1.504.328 1.933.983L8 4.39l.417-.695c.429-.655 1.077-.983 1.934-.983.74 0 1.336.259 1.791.764q.662.757.661 2.046z"
     id="path2" />
  <path
     style="fill:#ffffff;stroke-width:0.0202788"
     d="M 3.2145911,7.4474018 C 3.2149101,5.6210322 3.2205011,5.1398327 3.2433971,4.9678674 3.4006762,3.7866281 4.077226,2.9953838 5.1204054,2.7726524 5.3527866,2.7230364 5.8525283,2.7144074 6.1039288,2.7556694 6.5780656,2.8334904 6.9876577,3.0431198 7.3025835,3.3691425 7.4574755,3.5294922 7.5481345,3.6603624 7.817079,4.1118395 7.9116565,4.2706068 7.9939709,4.400507 8,4.400507 c 0.00603,0 0.088344,-0.1299002 0.1829208,-0.2886671 C 8.4485619,3.6659084 8.5419409,3.5303631 8.6871213,3.3799614 9.0094929,3.0459962 9.4205844,2.8337119 9.896071,2.7556698 c 0.252714,-0.041478 0.751412,-0.03266 0.983523,0.017392 0.720776,0.1554247 1.265372,0.5729028 1.590706,1.2194096 0.09778,0.1943081 0.221508,0.5702235 0.267791,0.8136126 0.03377,0.1775766 0.03712,0.3770849 0.04282,2.5500633 l 0.0062,2.3574145 H 11.96592 11.144748 l -0.0072,-2.2053232 C 11.12955,5.0733603 11.135043,5.177923 10.999882,4.8883498 10.834205,4.5333989 10.565221,4.36978 10.108999,4.3464379 9.4675275,4.3136176 9.065075,4.6088631 8.8881403,5.2420786 8.8436368,5.4013487 8.8426886,5.4290117 8.8361849,6.7579214 l -0.00662,1.3536122 H 8 7.1704395 L 7.1638151,6.7579214 C 7.1573114,5.4290117 7.1563632,5.4013487 7.1118597,5.2420786 6.9422609,4.6351167 6.5629899,4.3386739 5.9577624,4.3400226 5.4988484,4.3410453 5.1731438,4.5233865 5.0086418,4.8713748 4.8638144,5.1777434 4.8705033,5.0570752 4.8624749,7.5082383 l -0.00722,2.2053232 H 4.0347234 3.2141952 Z"
     id="path2312" />
</svg>
