<?xml version="1.0" standalone="no"?>
<!DOCTYPE svg PUBLIC "-//W3C//DTD SVG 20010904//EN"
 "http://www.w3.org/TR/2001/REC-SVG-20010904/DTD/svg10.dtd">
<svg version="1.0" xmlns="http://www.w3.org/2000/svg"
 width="700.000000pt" height="700.000000pt" viewBox="0 0 700.000000 700.000000"
 preserveAspectRatio="xMidYMid meet">
<metadata>
Created by potrace 1.14, written by Peter Selinger 2001-2017
</metadata>
<g transform="translate(0.000000,700.000000) scale(0.100000,-0.100000)"
fill="#000000" stroke="none">
<path d="M442 6773 c-121 -126 -270 -280 -331 -343 l-110 -115 -1 -61 c0 -54
6 -74 51 -165 28 -57 80 -162 114 -234 34 -71 109 -224 165 -340 56 -115 151
-309 210 -430 58 -121 119 -245 134 -276 28 -56 30 -58 155 -122 159 -82 390
-201 641 -329 107 -55 254 -132 327 -170 l132 -69 133 93 c73 52 168 118 211
147 l77 54 -1 279 c-2 276 -4 292 -33 239 -10 -20 -247 -412 -264 -438 -6 -10
-35 1 -111 40 l-103 53 -54 139 c-63 161 -82 210 -94 245 -40 115 -150 381
-150 365 -1 -11 -2 -186 -2 -388 -1 -202 -5 -366 -9 -365 -4 2 -100 50 -213
108 l-206 105 0 893 c0 492 3 892 8 890 49 -22 344 -175 365 -190 15 -11 27
-25 27 -31 0 -7 13 -46 29 -87 77 -194 391 -1020 391 -1028 0 -4 5 -13 12 -20
8 -8 58 67 205 311 107 177 206 339 219 359 l24 38 190 -98 190 -97 0 -55 c1
-30 2 -257 4 -505 2 -247 4 -453 5 -457 0 -5 20 7 44 25 24 17 90 64 146 102
57 39 115 80 130 92 l27 22 0 417 -1 417 -110 57 c-60 31 -218 112 -350 179
-132 68 -276 143 -320 166 -44 23 -188 98 -320 165 -132 67 -307 158 -390 200
-82 43 -224 116 -315 162 -91 47 -249 129 -352 182 -174 90 -190 96 -246 96
l-59 0 -221 -227z"/>
<path d="M5915 6564 c-291 -165 -305 -172 -380 -214 -49 -27 -1101 -617 -1225
-687 -56 -32 -311 -174 -360 -201 -25 -14 -90 -50 -145 -81 -55 -31 -112 -63
-127 -71 -17 -8 -28 -22 -29 -34 -1 -24 -1 -680 0 -858 l1 -117 153 86 c211
118 273 160 342 230 63 63 73 82 214 373 146 303 290 479 551 671 l100 74 0
112 0 113 173 0 c94 1 252 1 350 2 97 1 179 -1 182 -4 3 -3 -5 -16 -18 -29
-12 -13 -58 -64 -102 -113 -44 -50 -87 -97 -95 -106 -39 -44 -92 -103 -165
-185 -44 -49 -82 -92 -85 -95 -3 -3 -41 -45 -85 -95 -44 -49 -97 -108 -117
-130 l-38 -40 0 98 0 99 -57 -41 c-86 -60 -212 -177 -272 -251 -48 -60 -157
-257 -147 -267 2 -2 170 89 372 203 203 114 403 226 444 249 41 23 93 52 115
64 22 13 72 41 111 63 l72 41 -2 99 c0 55 1 103 4 107 3 4 164 7 358 8 195 1
351 -1 347 -5 -3 -3 -29 -33 -58 -66 -29 -33 -61 -69 -72 -80 -11 -12 -72 -80
-135 -151 -63 -72 -126 -142 -140 -156 -14 -15 -38 -42 -54 -60 -36 -41 -249
-279 -250 -279 -1 0 0 47 0 105 2 102 -1 115 -21 96 -6 -4 -41 -25 -80 -46
-38 -21 -144 -79 -235 -130 -91 -51 -188 -106 -216 -121 -506 -281 -994 -561
-994 -570 0 -17 66 -73 93 -79 12 -3 33 -7 47 -9 35 -5 242 49 255 68 6 8 10
51 9 96 -1 58 2 83 11 86 15 6 695 12 695 6 0 -6 -43 -57 -129 -151 -42 -46
-86 -96 -99 -110 -13 -14 -33 -37 -45 -51 -13 -14 -76 -85 -142 -159 -66 -74
-135 -151 -152 -170 -18 -20 -33 -38 -33 -41 0 -3 25 -18 56 -33 55 -27 57
-27 83 -10 14 10 28 18 31 18 3 0 21 10 40 21 41 25 413 234 588 330 26 14 65
37 87 49 22 13 63 36 91 52 28 15 170 95 316 176 l264 149 104 231 c57 128
118 264 136 302 17 39 75 167 129 285 54 118 106 233 116 255 10 22 61 134
113 250 l94 209 -20 26 c-11 14 -41 48 -67 75 -26 28 -96 104 -156 170 -61 66
-112 122 -115 125 -3 3 -52 57 -110 120 -58 63 -127 139 -155 168 -27 29 -51
58 -53 63 -2 5 -9 9 -15 9 -7 0 -120 -61 -252 -136z"/>
<path d="M3075 4579 c-22 -16 -47 -35 -55 -42 -8 -7 -98 -75 -200 -151 -102
-77 -198 -150 -215 -163 -43 -34 -31 -24 -270 -203 -121 -91 -222 -168 -225
-171 -3 -3 -50 -38 -105 -79 -55 -41 -102 -76 -105 -80 -3 -3 -48 -37 -100
-75 -52 -39 -102 -76 -110 -83 -9 -7 -133 -101 -277 -210 -144 -108 -363 -273
-486 -367 l-225 -170 -126 -290 c-69 -159 -164 -380 -211 -490 -48 -110 -95
-218 -105 -240 -10 -22 -48 -110 -85 -195 -37 -85 -73 -168 -80 -185 -89 -199
-95 -218 -95 -279 l0 -61 97 -75 c53 -41 209 -164 346 -272 138 -109 254 -198
259 -198 4 0 140 100 301 221 160 122 405 306 542 410 138 104 469 354 737
556 267 203 567 429 666 503 l181 135 0 1143 c0 628 -3 1142 -7 1142 -4 0 -25
-14 -47 -31z m-468 -845 c63 -51 90 -101 110 -204 9 -46 9 -190 1 -263 -7 -60
-20 -117 -52 -237 -10 -36 -51 -132 -93 -214 -133 -264 -306 -451 -643 -697
l-35 -26 -1 -222 c0 -146 -4 -225 -11 -229 -6 -4 -108 -81 -227 -172 -120 -91
-220 -166 -224 -167 -5 -2 -8 1689 -3 1768 1 9 27 36 58 60 32 24 62 48 68 52
5 4 93 71 195 148 102 77 192 146 200 152 259 210 410 289 547 284 63 -2 76
-6 110 -33z"/>
<path d="M2085 3119 c-33 -23 -89 -65 -126 -94 l-65 -53 0 -201 c1 -110 5
-201 9 -202 14 -1 201 147 240 190 68 76 109 179 109 276 0 131 -55 159 -167
84z"/>
<path d="M3390 2948 l1 -1143 257 -158 c141 -87 266 -164 277 -170 11 -7 44
-27 73 -45 30 -18 136 -83 236 -144 99 -61 197 -121 216 -133 46 -30 456 -282
497 -306 30 -17 59 -35 153 -95 49 -30 328 -202 365 -224 17 -10 217 -133 445
-274 l415 -256 194 197 c106 109 258 263 337 343 l145 146 -97 229 c-52 127
-102 244 -109 260 -7 17 -116 275 -242 574 l-228 544 -200 123 c-110 68 -213
132 -230 142 -24 16 -622 384 -689 425 -11 7 -67 41 -126 77 -59 36 -115 70
-126 77 -10 6 -104 64 -209 129 -104 64 -228 141 -275 169 -47 29 -305 188
-574 354 -269 165 -493 301 -497 301 -5 0 -9 -501 -9 -1142z m280 501 c14 -10
192 -120 395 -245 204 -125 382 -235 397 -245 l26 -19 0 -170 c0 -94 -2 -170
-5 -170 -2 0 -62 36 -134 81 -72 45 -133 78 -136 75 -3 -3 -6 -222 -6 -486 0
-264 -2 -480 -4 -480 -5 0 -152 89 -200 122 -23 15 -44 28 -48 28 -3 0 -21 10
-38 23 l-33 22 1 488 c0 422 -2 490 -15 501 -8 7 -69 45 -135 86 -66 40 -122
75 -125 77 -3 3 -5 81 -5 174 0 165 0 169 20 163 11 -4 31 -15 45 -25z m1256
-763 c191 -67 378 -245 502 -476 63 -119 66 -107 -49 -179 -55 -34 -102 -61
-103 -59 -1 2 -9 18 -16 37 -19 48 -102 171 -136 203 -16 14 -49 36 -73 49
-129 67 -204 -11 -204 -211 1 -165 65 -324 167 -418 50 -45 121 -81 154 -76 6
1 18 2 26 3 7 0 29 12 49 26 20 13 38 21 41 17 2 -4 47 -88 101 -187 l98 -179
-36 -31 c-81 -70 -195 -73 -327 -7 -74 36 -178 112 -237 173 -225 230 -358
551 -361 876 -3 253 78 418 222 454 42 10 132 3 182 -15z m798 -503 c363 -222
393 -243 471 -320 123 -120 206 -264 251 -439 22 -86 25 -115 22 -219 -4 -97
-9 -130 -27 -170 -40 -90 -91 -127 -175 -127 -80 -1 -157 30 -303 122 -52 33
-63 37 -64 22 0 -9 -1 -81 -1 -159 0 -79 -2 -143 -4 -143 -3 0 -84 48 -160 95
-18 11 -61 37 -96 58 l-63 37 0 665 c0 366 2 665 4 665 2 0 67 -39 145 -87z"/>
<path d="M5896 1570 c1 -83 3 -152 5 -154 24 -22 150 -89 173 -93 94 -15 96
173 3 282 -23 28 -155 115 -174 115 -4 0 -7 -68 -7 -150z"/>
<path d="M4462 3761 l-33 -17 35 -16 c32 -16 34 -16 38 0 3 10 2 25 -1 34 -6
15 -8 15 -39 -1z"/>
</g>
</svg>
